<svg width="512" height="282" viewBox="0 0 512 282" fill="none" xmlns="http://www.w3.org/2000/svg" fill="currentColor">
<path d="M512.065 193.705C512.099 193.031 512.039 192.34 511.954 191.64C511.954 191.572 511.98 191.521 511.971 191.461C511.962 191.393 511.945 191.307 511.937 191.239V191.23C510.777 182.057 504.163 161.619 466.164 162.532C443.098 163.232 416.73 149.101 416.457 148.955C416.175 148.81 415.885 148.665 415.587 148.554L357.1 125.164C362.374 114.378 359.481 100.998 349.556 93.497C344.095 89.375 337.387 87.626 330.578 88.573C323.811 89.52 317.812 93.044 313.691 98.497L310.269 103.037C306.378 100.673 302.376 98.071 298.126 95.127C306.574 83.872 304.33 67.837 293.083 59.338C282.536 51.393 267.867 52.955 259.044 62.384C255.153 58.416 251.475 54.516 248.224 50.71C247.977 50.411 247.746 50.164 247.499 49.874V51.811C247.499 52.724 247.354 53.629 247.064 54.491C232.685 98.011 166.185 128.415 85.3657 128.415C70.9107 128.415 57.4707 125.403 44.4737 122.493C40.4207 121.58 36.4357 120.692 32.5187 119.924C32.1607 119.847 31.8107 119.753 31.4607 119.642L25.6327 117.696V124.762C23.1157 127.313 19.3437 131.572 15.4607 137.144H17.0987C59.5947 138.859 93.8987 173.223 93.8987 213.748C93.8987 216.555 93.6687 219.406 93.3357 222.264H76.1157C76.5507 219.388 76.8327 216.538 76.8327 213.748C76.8327 182.789 49.3127 155.534 16.7577 154.202H6.08874C-1.96626 173.496 -4.74826 200.137 15.1337 230.763C3.80974 248.888 9.58674 262.029 14.4257 268.514C20.7147 276.953 31.3217 281.997 42.7647 281.997H380.284C419.401 281.997 458.705 273.071 493.956 256.184L498.154 254.179C510.725 248.207 512.704 218.332 512.065 193.705ZM311.881 129.218L327.309 108.781C328.683 106.972 330.688 105.794 332.941 105.479C333.342 105.419 333.743 105.394 334.144 105.394C335.979 105.394 337.762 105.983 339.256 107.118C343.019 109.96 343.77 115.319 340.937 119.073L337.225 123.98L337.217 123.988L325.492 139.502C324.127 141.328 322.13 142.497 319.877 142.813C317.633 143.137 315.38 142.548 313.554 141.157C311.736 139.792 310.559 137.795 310.243 135.542C309.927 133.289 310.507 131.045 311.881 129.218ZM255.416 95.059L266.569 80.305V80.288L270.844 74.63C273.677 70.867 279.053 70.124 282.799 72.957C286.562 75.799 287.305 81.158 284.471 84.921L269.043 105.341C266.645 108.507 262.489 109.377 258.991 107.927C258.343 107.654 257.677 107.458 257.097 107.014C255.817 106.058 255.032 104.761 254.469 103.379C253.376 100.683 253.547 97.543 255.416 95.059ZM179.23 145.483H230.43C244.544 145.483 256.03 156.969 256.03 171.083C256.03 185.197 244.544 196.683 230.43 196.683H179.23C165.107 196.683 153.63 185.197 153.63 171.083C153.63 156.969 165.108 145.483 179.23 145.483ZM490.176 239.077L486.592 240.792C453.619 256.587 416.858 264.933 380.284 264.933H42.7647C36.6717 264.933 31.2017 262.458 28.1127 258.32C26.6537 256.366 22.4717 250.759 29.8617 239.333H83.0247H83.2127H418.163C419.895 239.333 421.61 239.128 423.3 238.821C423.71 238.744 424.119 238.642 424.529 238.548C425.869 238.241 427.183 237.84 428.463 237.345C428.83 237.208 429.197 237.08 429.555 236.927C431.125 236.244 432.67 235.468 434.12 234.503C435.664 233.471 437.132 232.267 438.515 230.902C439.667 229.741 441.007 228.863 442.517 228.282C445.683 227.062 451.264 225.372 457.732 223.401C471.479 219.22 482.974 215.559 491.908 211.796C491.968 211.77 492.036 211.745 492.096 211.719C492.983 211.344 493.982 210.968 494.818 210.593C494.196 224.331 492.421 235.877 490.176 239.077Z" />
<path d="M206.026 21.8489L210.881 13.3499C194.104 0.302924 184.3 -0.60208 177.755 0.52392C167.447 2.33292 157.616 6.48892 146.241 11.2929C121.742 21.6519 91.252 34.5379 34.156 34.5379C29.446 34.5379 25.623 38.3519 25.623 43.0709V77.4179H68.29C129.909 77.4179 186.544 54.5649 206.026 21.8489Z" />
<path d="M48.2011 105.84C60.2931 108.545 72.7941 111.353 85.3551 111.353C155.755 111.353 217.673 85.2238 230.422 50.3738V31.1658C228.203 28.8878 226.053 26.7628 223.996 24.7998L220.77 30.4488C197.935 68.7978 136.682 94.4828 68.2881 94.4828H25.6221V99.7138L36.3401 103.281C40.2311 104.056 44.1821 104.944 48.2011 105.84Z" />
<path d="M179.226 179.615H230.426C235.136 179.615 238.959 175.792 238.959 171.082C238.959 166.372 235.136 162.549 230.426 162.549H179.226C174.516 162.549 170.693 166.372 170.693 171.082C170.693 175.792 174.516 179.615 179.226 179.615Z" />
</svg>
